HIERARCHY
ROOT Hips
{
 OFFSET 0.000000 0.000000 0.000000
 CHANNELS 6 Xposition Yposition Zposition Yrotation Xrotation Zrotation
 JOINT Chest
 {
  OFFSET 0.000000 9.585900 0.002600
  CHANNELS 3 Yrotation Xrotation Zrotation
  JOINT Chest2
  {
   OFFSET 0.000000 9.601200 -0.005300
   CHANNELS 3 Yrotation Xrotation Zrotation
   JOINT Chest3
   {
    OFFSET 0.000000 9.561800 0.000000
    CHANNELS 3 Yrotation Xrotation Zrotation
    JOINT Chest4
    {
     OFFSET 0.000000 9.552100 0.000000
     CHANNELS 3 Yrotation Xrotation Zrotation
     JOINT Neck
     {
      OFFSET 0.000000 14.453000 0.000000
      CHANNELS 3 Yrotation Xrotation Zrotation
      JOINT Head
      {
       OFFSET 0.000000 8.936500 -0.011300
       CHANNELS 3 Yrotation Xrotation Zrotation
       End Site
       {
        OFFSET 0.000000 17.073600 -0.006000
       }
      }
     }
     JOINT RightCollar
     {
      OFFSET -2.921100 9.558500 0.000000
      CHANNELS 3 Yrotation Xrotation Zrotation
      JOINT RightShoulder
      {
       OFFSET -13.519700 0.000000 0.000000
       CHANNELS 3 Yrotation Xrotation Zrotation
       JOINT RightElbow
       {
        OFFSET 0.000000 -29.696600 0.000000
        CHANNELS 3 Yrotation Xrotation Zrotation
        JOINT RightWrist
        {
         OFFSET 0.000000 -24.004700 0.000000
         CHANNELS 3 Yrotation Xrotation Zrotation
         End Site
         {
          OFFSET 0.000000 -17.728500 0.000000
         }
        }
       }
      }
     }
     JOINT LeftCollar
     {
      OFFSET 2.921100 9.558500 0.000000
      CHANNELS 3 Yrotation Xrotation Zrotation
      JOINT LeftShoulder
      {
       OFFSET 13.519700 0.000000 0.000000
       CHANNELS 3 Yrotation Xrotation Zrotation
       JOINT LeftElbow
       {
        OFFSET 0.000000 -29.696600 0.000000
        CHANNELS 3 Yrotation Xrotation Zrotation
        JOINT LeftWrist
        {
         OFFSET 0.000000 -24.004700 0.000000
         CHANNELS 3 Yrotation Xrotation Zrotation
         End Site
         {
          OFFSET 0.000000 -17.728500 0.000000
         }
        }
       }
      }
     }
    }
   }
  }
 }
 JOINT RightHip
 {
  OFFSET -7.771700 -0.012900 -0.001300
  CHANNELS 3 Yrotation Xrotation Zrotation
  JOINT RightKnee
  {
   OFFSET 0.000000 -40.869800 0.001200
   CHANNELS 3 Yrotation Xrotation Zrotation
   JOINT RightAnkle
   {
    OFFSET 0.000000 -39.717900 0.002100
    CHANNELS 3 Yrotation Xrotation Zrotation
    JOINT RightToe
    {
     OFFSET 0.000000 -4.965400 11.033500
     CHANNELS 3 Yrotation Xrotation Zrotation
     End Site
     {
      OFFSET 0.000000 -1.423100 5.872300
     }
    }
   }
  }
 }
 JOINT LeftHip
 {
  OFFSET 7.771700 -0.012900 -0.001300
  CHANNELS 3 Yrotation Xrotation Zrotation
  JOINT LeftKnee
  {
   OFFSET 0.000000 -40.869800 0.001200
   CHANNELS 3 Yrotation Xrotation Zrotation
   JOINT LeftAnkle
   {
    OFFSET 0.000000 -39.717900 0.002100
    CHANNELS 3 Yrotation Xrotation Zrotation
    JOINT LeftToe
    {
     OFFSET 0.000000 -4.965400 11.033500
     CHANNELS 3 Yrotation Xrotation Zrotation
     End Site
     {
      OFFSET 0.000000 -1.423100 5.872300
     }
    }
   }
  }
 }
}
MOTION
Frames: 9
Frame Time: 0.008333
0.000000 85.388000 0.000000 0.000000 -5.767877 0.000000 0.000000 11.653817 0.000000 0.000000 -5.885947 0.000000 0.000000 -0.000000 0.000000 0.000000 -0.000000 0.000000 0.000000 12.528835 0.000000 0.000000 0.711642 0.000000 0.000000 -0.000000 0.000000 0.000000 0.000000 -90.000000 0.000000 -2.309062 0.000000 0.000000 2.309062 0.000000 0.000000 -0.000000 0.000000 0.000000 -0.000000 90.000000 0.000000 -2.309062 0.000000 0.000000 2.309062 0.000000 0.000000 8.520406 0.000000 0.000000 1.905762 0.000000 -0.000000 -4.658285 0.000000 0.000000 -0.000000 0.000000 0.000000 8.520406 0.000000 0.000000 1.905762 0.000000 -0.000000 -4.658285 0.000000 0.000000 -0.000000 0.000000
-7.815351 57.996796 30.955106 173.220769 -36.524706 -1.405686 3.178916 23.275129 1.504887 0.421698 3.398157 0.063685 0.664388 5.423764 0.111276 2.538755 19.502744 0.727493 -0.069902 9.306497 -1.102748 0.396432 -18.486902 -2.123537 6.121735 -1.826034 1.320033 36.347985 -43.823396 -21.525292 34.190172 -4.858954 -3.961989 8.938334 -0.688461 -49.629355 -10.635464 -5.678017 -1.340489 -25.304786 -41.447146 10.095472 -35.529550 -5.375831 11.465871 -26.640574 0.179506 32.711962 9.702375 -36.368870 1.466353 1.997881 69.654203 2.873173 2.788333 5.875695 3.943853 -0.041688 -0.139287 0.015232 -5.434003 -38.172795 -1.344509 26.182267 73.327359 27.088119 -21.467424 1.686434 -3.538462 0.212552 -1.245232 0.211183
-7.807686 57.995841 30.994822 173.273829 -36.621473 -1.446788 3.129603 23.281764 1.513237 0.418427 3.411116 0.062651 0.665677 5.434094 0.113747 2.541790 19.563676 0.726334 -0.089394 9.304508 -1.087250 0.389473 -18.433502 -2.098400 6.105601 -1.882318 1.326146 36.151529 -43.768084 -21.367738 34.347657 -5.118224 -4.065987 9.004966 -0.753510 -49.851133 -10.621254 -5.673618 -1.342659 -24.877392 -41.392310 9.850487 -35.279898 -5.703031 11.687704 -26.668051 0.146833 32.687594 9.625761 -36.279203 1.568149 1.680159 69.611697 2.482426 2.848762 5.966164 3.996923 -0.052848 -0.125643 0.016404 -5.589173 -38.139577 -1.202402 26.276484 73.303017 27.046106 -21.575242 2.012638 -3.596971 0.273759 -1.231732 0.237956
-7.800123 57.994216 31.042554 173.315373 -36.730159 -1.482459 3.088950 23.209725 1.529121 0.415531 3.432956 0.062339 0.673556 5.558001 0.112510 2.516267 19.559817 0.719028 -0.074117 9.340223 -1.080509 0.359092 -18.365200 -2.048783 6.118702 -1.906728 1.327768 35.948354 -43.712187 -21.201817 34.528475 -5.355275 -4.184804 9.062645 -0.838957 -50.120416 -10.586886 -5.635303 -1.352180 -24.405360 -41.346013 9.583173 -35.044853 -6.028469 11.892103 -26.687170 0.105467 32.668231 9.571360 -36.174931 1.658140 1.388502 69.552844 2.131666 2.907047 6.050496 4.054170 -0.057824 -0.098281 0.011469 -5.746756 -38.088967 -1.050524 26.361722 73.269838 26.982770 -21.669239 2.323796 -3.650106 0.326537 -1.208030 0.260040
-7.796603 57.992647 31.095311 173.340739 -36.857054 -1.490046 3.067211 23.203309 1.533113 0.414303 3.447325 0.062378 0.671355 5.579870 0.112438 2.489011 19.557890 0.715444 -0.060014 9.437593 -1.076109 0.323851 -18.278637 -1.985664 6.138179 -1.865333 1.332275 35.749829 -43.659378 -21.039205 34.721908 -5.580674 -4.311172 9.146841 -0.927499 -50.420242 -10.522956 -5.539856 -1.383064 -23.947068 -41.303356 9.313233 -34.804176 -6.340342 12.073563 -26.697505 0.061123 32.655150 9.559661 -36.054041 1.712723 1.125485 69.490887 1.821939 2.954679 6.140672 4.113377 -0.069731 -0.073606 0.006074 -5.852344 -38.006670 -0.950793 26.433528 73.215720 26.923885 -21.729330 2.601834 -3.693258 0.353135 -1.160364 0.272878
-7.795818 57.990114 31.153202 173.364522 -36.990467 -1.490780 3.053989 23.222097 1.535594 0.414259 3.457752 0.062446 0.670788 5.575705 0.113159 2.484894 19.601956 0.715158 -0.081013 9.497053 -1.050622 0.294702 -18.171728 -1.921922 6.130113 -1.895391 1.341637 35.539911 -43.581057 -20.848126 34.926531 -5.791181 -4.434634 9.246562 -1.005714 -50.738504 -10.521379 -5.476938 -1.394422 -23.467880 -41.268153 9.053783 -34.547010 -6.630673 12.234476 -26.697605 -0.000428 32.644762 9.578259 -35.933455 1.743055 0.882421 69.428318 1.552559 2.982955 6.255854 4.167137 -0.075544 -0.068492 0.004455 -5.947091 -37.913897 -0.862653 26.465983 73.158220 26.824804 -21.768662 2.862656 -3.730404 0.365382 -1.106876 0.282868
-7.798351 57.986306 31.215292 173.385762 -37.127603 -1.482603 3.046570 23.238956 1.533707 0.414819 3.466716 0.062649 0.671637 5.589354 0.113535 2.484769 19.622173 0.716155 -0.105065 9.570639 -1.018555 0.256065 -18.048195 -1.844895 6.119731 -1.906252 1.352086 35.328503 -43.519359 -20.652308 35.128393 -5.977567 -4.556534 9.339683 -1.080188 -51.048137 -10.510295 -5.405941 -1.411182 -23.038545 -41.228640 8.818655 -34.268733 -6.901394 12.388953 -26.670269 -0.103181 32.650479 9.638303 -35.811697 1.738001 0.667632 69.363052 1.336632 3.009257 6.375745 4.225169 -0.080947 -0.066050 0.001511 -6.028417 -37.814264 -0.787191 26.463598 73.094733 26.692207 -21.810966 3.115151 -3.759652 0.366914 -1.055461 0.285897
-7.807494 57.982334 31.278745 173.394356 -37.280780 -1.438210 3.041224 23.269981 1.502353 0.415623 3.474413 0.062875 0.662211 5.654447 0.111745 2.496928 19.585755 0.716325 -0.121868 9.646688 -0.981488 0.203598 -17.895794 -1.751285 6.112940 -1.912064 1.364464 35.096192 -43.469396 -20.431229 35.324193 -6.142308 -4.682019 9.428494 -1.136866 -51.305618 -10.500400 -5.336903 -1.431444 -22.645588 -41.175430 8.606026 -33.952128 -7.159878 12.540046 -26.612637 -0.227983 32.689989 9.698582 -35.673122 1.709511 0.545980 69.302656 1.186286 3.026546 6.491234 4.290080 -0.086853 -0.062062 -0.003747 -6.027237 -37.686634 -0.804420 26.469153 73.001587 26.614336 -21.835800 3.349085 -3.775719 0.341220 -0.994961 0.270929
-7.810794 57.975509 31.348680 173.421191 -37.420201 -1.452303 3.044281 23.284401 1.525464 0.416300 3.481369 0.063043 0.668139 5.638695 0.113140 2.486023 19.650816 0.715643 -0.134232 9.707198 -0.940138 0.151109 -17.722970 -1.648093 6.118332 -1.919755 1.374978 34.852527 -43.448022 -20.196425 35.521096 -6.287525 -4.815562 9.511181 -1.157800 -51.491104 -10.492492 -5.292673 -1.452507 -22.269471 -41.113427 8.409734 -33.586168 -7.402238 12.670487 -26.552422 -0.334212 32.741661 9.721082 -35.562331 1.735789 0.439003 69.232267 1.054946 3.042953 6.661119 4.350008 -0.102880 -0.098127 -0.001609 -6.140141 -37.581772 -0.683191 26.424325 72.936672 26.423660 -21.904538 3.589209 -3.806767 0.366323 -0.950887 0.276932
